<svg width="76" height="36" viewBox="0 0 76 36" fill="none" xmlns="http://www.w3.org/2000/svg">
<path d="M15.2425 20.8836C16.3344 23.3906 17.4906 25.8929 18.4908 28.4714C18.9652 29.6332 19.3503 30.8985 19.4434 32.1533C19.57 33.8584 18.1081 35.5199 16.4518 35.8693C15.2733 36.1185 13.3381 35.3239 13.3236 34.2574C13.2384 30.0582 10.3435 27.2321 8.54362 23.9041C7.0072 21.0743 5.00489 18.5056 3.46846 15.6757C2.34564 13.6239 1.27765 11.4386 0.754187 9.18054C-0.485908 3.80533 3.10855 -0.505265 8.4888 0.065898C15.9568 0.870303 23.3867 2.03339 30.5833 4.41077C31.9775 4.88959 33.3838 5.52931 34.5493 6.41331C36.3322 7.76911 35.6403 11.0878 33.4442 11.5743C31.5973 11.9702 29.6204 11.9229 27.6805 11.9375C24.7062 11.9642 21.7199 11.8299 18.4811 11.7792C18.5873 12.7742 18.4492 13.5285 18.7651 13.8609C24.3176 19.3689 30.5731 23.8866 37.927 26.6405C44.0844 28.9656 50.3823 29.6952 56.8119 27.4063C65.857 24.1792 71.4302 16.4542 71.362 6.81876C71.3476 5.75226 71.2068 4.72752 71.1495 3.95536C72.4696 2.56335 73.5076 3.0363 74.1238 3.92873C75.5016 5.92925 75.9928 8.18958 75.8204 10.661C74.8963 22.1817 66.3097 31.5862 54.8205 33.7007C48.1166 34.91 41.5733 34.3605 35.1787 31.8912C29.9162 29.8555 25.1434 27.007 20.5968 23.7212C19.0261 22.6085 17.515 21.4266 15.974 20.2793C15.7608 20.4569 15.5177 20.6691 15.2425 20.8836Z" fill="black"/>
</svg>
