<svg width="82" height="40" viewBox="0 0 82 40" fill="none" xmlns="http://www.w3.org/2000/svg">
<path d="M43.7351 36.1127C43.4382 33.2088 45.0875 30.7827 45.274 27.8261C40.8991 28.0679 37.2082 30.0345 33.2687 30.9038C29.1197 31.8131 25.0324 33.046 20.9161 34.1267C16.9331 35.1819 12.931 36.2408 8.46012 37.4284C8.238 38.0234 7.88716 38.9784 7.57529 39.8273C5.56645 39.5392 4.47889 38.286 2.82107 38.2862C1.28113 38.2836 0.874647 36.5651 2.0027 35.4422C2.43252 35.005 3.02468 34.6948 3.70572 34.2295C3.36987 31.8461 3.1256 29.4256 2.65281 27.0487C2.50035 26.2488 1.77656 25.5578 1.3348 24.7934C0.641778 23.6426 1.01437 22.3874 2.23139 21.9383C2.94872 21.6634 3.71414 21.5373 4.46867 21.354C14.2766 19.0701 24.0691 16.8089 33.8771 14.525C36.9024 13.8299 39.916 13.1766 42.945 12.5005C43.9281 12.2737 44.9075 12.0278 45.8488 11.7892C45.9231 10.729 45.1594 10.6574 44.618 10.4054C43.6829 9.95204 42.7088 9.60482 41.7928 9.14785C39.5444 8.01721 39.4383 7.56377 40.6913 4.8184C39.8723 4.14557 39.046 3.43466 38.295 2.80808C38.439 1.18197 39.3159 0.501683 40.6091 0.452551C42.2751 0.391584 43.9592 0.425838 45.6271 0.581621C50.8926 1.07796 56.1383 1.67678 61.3921 2.21484C65.3771 2.61974 69.3467 3.04732 73.3217 3.29623C75.3586 3.42113 77.4408 3.1624 79.5022 3.10502C80.5025 3.07225 81.259 3.52016 81.6345 4.45514C82.0137 5.40916 81.7173 6.23539 80.951 6.87486C80.5602 7.20593 80.1167 7.46808 79.6769 7.74928C75.9725 9.95533 72.8023 12.7898 70.0239 16.0233C65.4084 21.4227 60.5743 26.6072 55.4799 31.5649C53.9148 33.0869 52.5265 34.812 51.0367 36.4184C50.4336 37.0859 49.8306 37.7535 49.156 38.3557C48.4006 39.0523 47.4801 39.0896 46.6602 38.5157C45.6099 37.7685 44.6747 36.9007 43.7351 36.1127ZM71.7515 7.89807C68.9137 7.19556 45.3201 4.25192 42.9812 4.30299C42.6656 4.30394 42.3591 4.55972 42.0308 4.70123C42.2639 4.99232 42.3564 5.27073 42.546 5.33329C45.1907 6.36865 47.8317 7.38498 50.48 8.43939C51.3135 8.77394 52.1814 9.08218 52.9224 9.55277C54.0643 10.2627 53.9403 11.7864 52.7414 12.3307C51.8137 12.7443 50.4361 12.8687 50.0381 13.5762C48.7669 15.8119 46.71 16.2039 44.5498 16.6748C32.8265 19.2646 21.1069 21.8734 9.39085 24.5013C8.53747 24.6836 7.74305 25.0719 6.76273 25.4166C6.97784 26.8559 7.12221 28.131 7.36179 29.3879C7.59411 30.6068 7.44101 31.978 8.56027 33.0871C9.43632 32.9201 10.3233 32.8102 11.1694 32.5897C20.1348 30.1309 29.1555 27.8589 38.0021 25.0872C41.8381 23.8824 46.1895 23.7241 49.4068 20.7227C49.7061 20.4288 50.7508 20.5257 51.1436 20.8259C51.5363 21.126 51.7758 21.9685 51.6797 22.4999C51.4251 23.7524 50.9046 24.9569 50.5058 26.1776C50.271 26.9131 50.0171 27.6523 49.824 28.3996C49.6038 29.2113 49.0225 29.9932 49.5414 31.0587C57.8089 24.2133 64.1934 15.7728 71.7515 7.89807Z" fill="black"/>
</svg>
