<svg width="37" height="50" viewBox="0 0 37 50" fill="none" xmlns="http://www.w3.org/2000/svg">
<path d="M3.91345 27.6701C4.73151 21.7767 5.10325 15.6895 4.68761 8.91745C5.74339 9.52508 6.75415 10.1193 7.73884 10.6983C9.30709 11.6204 10.8091 12.5035 12.3214 13.3396C15.3 14.9399 18.2947 16.4727 21.2906 18.0061C21.9578 18.3476 22.625 18.6891 23.2921 19.0314C23.987 19.3867 24.6819 19.6531 25.3739 19.8546C26.1528 20.0783 26.6686 19.7267 26.8522 18.9014C27.0358 18.0761 26.8329 17.204 26.1744 16.4755C25.9721 16.2534 25.7715 16.023 25.5706 15.7924C24.3753 14.4199 23.1726 13.039 21.5509 13.3343C21.3854 13.3575 21.1645 13.2294 20.946 13.1028C20.8478 13.0459 20.7502 12.9893 20.6583 12.9469C19.692 12.4616 18.7248 11.9833 17.7573 11.5049C15.654 10.4649 13.5491 9.42409 11.4485 8.30834C8.48651 6.73672 5.50353 5.1536 3.09771 1.76855C2.54713 0.985023 1.80421 0.742989 1.14472 0.990567C0.497214 1.23203 0.226893 1.85761 0.288869 2.77935C0.304808 3.0626 0.360093 3.35221 0.414663 3.63801C0.430695 3.72196 0.446661 3.80557 0.461545 3.8886C1.221 8.48995 1.30046 12.8837 1.0474 17.1588C0.9355 19.1523 0.757014 21.1206 0.578528 23.089C0.489308 24.0729 0.400094 25.0568 0.319188 26.0439C0.303827 26.258 0.285519 26.4705 0.267211 26.6828C0.216686 27.269 0.1663 27.8535 0.178884 28.4656C0.204806 29.4944 0.854004 30.5602 1.6057 30.9973C2.39036 31.4398 3.13673 31.2144 3.4164 30.2515C3.65394 29.4431 3.78969 28.5535 3.91345 27.6701Z" fill="black"/>
<path d="M12.0042 24.0372C11.9684 23.5219 11.9296 22.9614 11.8718 22.3266C12.1061 22.4923 12.3052 22.6314 12.4787 22.7527C12.9525 23.0838 13.2354 23.2816 13.5247 23.5236C19.354 28.5554 25.3847 32.8859 31.4485 37.133C32.4067 37.7974 33.3769 38.4556 34.3683 38.9479C34.9254 39.2403 35.5576 39.2949 36.0821 39.227C36.6515 39.1584 37.0356 38.6079 36.8596 37.7885C36.7403 37.2286 36.4324 36.5652 36.0612 36.1337C35.6253 35.6229 35.1007 35.2459 34.5838 34.8744C34.5222 34.8301 34.4607 34.7859 34.3995 34.7416C32.3963 33.3019 30.3721 31.8508 28.3538 30.4409C23.5237 27.0724 18.7748 23.5075 14.1581 19.5202C14.0811 19.4535 14.0041 19.3872 13.9271 19.321C12.813 18.3624 11.7271 17.428 11.3842 15.5912C11.2203 14.677 10.4329 14.0808 9.66889 13.916C8.90493 13.7512 8.39511 14.1442 8.20552 14.9282C8.07315 15.4391 7.99765 16.0319 8.06898 16.6163C8.20372 17.7303 8.33519 18.8437 8.46666 19.9571C8.92676 23.8534 9.38685 27.7496 9.98649 31.6686C10.5875 35.5826 11.2929 39.5011 11.9982 43.419C12.2711 44.9348 12.5439 46.4505 12.8107 47.9658C12.8212 48.0387 12.8265 48.1142 12.8318 48.1897C12.8446 48.371 12.8574 48.5524 12.9418 48.6971C12.9844 48.7704 13.0288 48.85 13.0745 48.9319C13.2955 49.3278 13.5473 49.7789 13.7707 49.8487C14.2021 49.9835 14.8673 49.9547 14.9875 49.6274C15.261 48.8893 15.4357 47.9577 15.3408 47.0306C15.0648 44.3555 14.69 41.6643 14.2732 38.9502C13.9457 36.8557 13.5987 34.76 13.2518 32.6643C12.9048 30.5687 12.5578 28.473 12.2303 26.3785C12.1149 25.633 12.0639 24.898 12.0042 24.0372Z" fill="black"/>
</svg>
