<svg width="113" height="29" viewBox="0 0 113 29" fill="none" xmlns="http://www.w3.org/2000/svg">
<path d="M37.3626 14.7217C36.4994 15.6757 35.7775 16.498 35.0149 17.2959C32.3052 20.0638 29.0073 21.3072 25.0128 20.809C20.8478 20.2948 16.994 18.9819 13.3547 16.9853C12.8858 16.7137 12.3703 16.4792 11.8472 16.3267C11.6593 16.2677 11.2758 16.4595 11.1501 16.6547C11.0243 16.8499 10.9859 17.2602 11.1003 17.4158C11.7401 18.1587 12.4515 18.8255 13.1165 19.5294C14.7604 21.2563 16.474 22.9276 18.027 24.7081C18.9963 25.8337 18.8964 26.9006 18.0117 27.6249C17.1968 28.2936 16.4007 28.3019 15.3134 27.5171C14.4064 26.8733 13.5535 26.1105 12.6987 25.3681C11.3283 24.1636 10.0295 22.8829 8.61454 21.6949C7.22089 20.5089 5.75946 19.3579 3.7662 19.2954C3.48727 19.29 3.19473 19.2005 2.94478 19.115C1.61175 18.659 0.935068 17.8506 0.932272 16.7327C0.93332 15.5738 1.56404 14.5773 2.89271 14.3913C8.07183 13.7173 10.9456 10.1161 13.8368 6.55796C14.785 5.38426 15.4735 3.99996 16.4256 2.78523C17.012 2.03297 17.7611 1.37875 18.5839 0.855597C19.7262 0.134701 21.2804 0.983912 21.4131 2.32093C21.5595 3.74201 21.1363 5.04767 20.3391 6.21482C18.8686 8.37445 17.3575 10.5096 15.7186 12.8604C17.1337 14.2761 19.1679 14.5908 20.9407 15.1707C22.7969 15.7792 24.8154 16.0303 26.7952 16.2364C28.6065 16.406 30.1032 15.5734 31.3381 14.3231C32.0271 13.6218 32.656 12.8735 33.1823 12.0743C34.6586 9.85308 37.3136 9.04618 39.8929 10.426C42.0012 11.5548 44.158 12.626 46.2393 13.8144C47.9543 14.7821 49.563 15.9676 51.2799 16.9149C54.6731 18.7849 58.0242 18.8089 61.3407 16.6773C63.6969 15.1594 66.0375 13.578 68.5625 12.3243C74.6734 9.27462 81.2736 10.1824 86.4295 14.5769C87.2863 15.2988 88.0191 16.1952 88.9494 16.8205C90.5657 17.9239 92.1938 19.1319 93.9919 19.9005C99.9639 22.4673 105.886 20.2899 108.647 14.6706C109.073 13.7998 109.334 12.8515 109.819 12.0277C110.049 11.6353 110.683 11.3014 111.157 11.2837C111.977 11.257 112.388 11.9164 112.472 12.6279C112.678 14.3237 112.271 15.9206 111.487 17.3995C108.895 22.3516 104.714 25.0024 98.9335 25.2062C94.2964 25.3722 90.3106 23.633 86.7424 20.8773C85.6414 20.0085 84.6373 19.0245 83.5635 18.096C79.5085 14.5704 74.7681 14.0023 70.1657 16.5517C68.0804 17.7017 66.0475 18.9808 64.0728 20.3274C59.1108 23.733 54.0008 23.6684 48.7958 20.9458C46.9103 19.962 45.2009 18.705 43.3928 17.5837C41.6235 16.5073 39.916 15.2298 37.3626 14.7217Z" fill="black"/>
</svg>
