<svg width="93" height="63" viewBox="0 0 93 63" fill="none" xmlns="http://www.w3.org/2000/svg">
<path d="M62.9787 38.4743C52.9602 38.1937 45.5405 35.4649 36.6457 21.6148C36.0839 21.6692 35.4229 21.6775 34.7734 21.7868C29.9812 22.5869 25.3149 22.0118 20.8433 20.1642C17.6066 18.8288 14.4791 17.1951 11.304 15.718C10.7373 15.4419 10.1551 15.2085 9.63031 14.9768C8.90266 15.8019 9.55291 16.1667 9.83085 16.4913C11.6797 18.6314 13.1298 21.1471 15.5389 22.7874C15.8628 23.0129 16.1112 23.3653 16.3022 23.7159C16.726 24.4617 16.8472 25.2412 16.2229 25.9689C15.5838 26.7106 14.7375 26.6701 14.0019 26.2738C13.1959 25.8324 12.4087 25.2334 11.7528 24.5667C10.4123 23.2324 9.10207 21.8416 7.87964 20.396C5.61599 17.6972 3.41057 14.9714 1.22074 12.2031C-0.0262557 10.6131 0.515473 8.76228 2.4182 8.53372C7.98204 7.87235 13.1386 5.89111 18.3247 3.88206C19.4287 3.45646 20.6671 3.35106 21.8612 3.28738C22.6526 3.23999 23.3216 4.453 22.858 5.08514C22.2444 5.94249 21.5856 6.87028 20.7218 7.43259C19.2577 8.39297 17.6566 9.11926 16.0826 9.90385C15.164 10.3783 14.2191 10.7657 13.1569 11.2357C19.4493 16.1994 28.4158 18.588 34.6958 17.0006C34.4558 15.8583 34.101 14.7125 33.9627 13.5303C33.7188 11.5259 33.361 9.4893 33.5042 7.51127C33.7297 4.17106 35.7715 2.10803 38.9423 1.24346C41.7514 0.46827 44.5767 0.627326 47.3049 1.65971C50.6728 2.92733 52.1033 5.62916 51.156 9.09074C50.1455 12.7515 47.8673 15.5399 44.7602 17.685C43.661 18.4411 42.5356 19.1103 41.1896 19.9594C43.3937 24.725 46.8307 28.0778 50.9487 30.7333C53.8112 32.5886 56.9077 33.8048 60.6656 33.5043C60.5354 32.5377 60.4429 31.7591 60.3496 31.0092C59.5435 24.5917 62.3847 19.7089 67.094 15.8032C69.9782 13.4214 73.6022 13.7776 76.2849 16.3887C78.6881 18.7327 79.5805 21.6621 78.9547 24.9325C78.1417 29.2171 76.0569 32.7728 72.2133 35.0532C70.8246 35.8866 69.3539 36.5738 67.6913 37.4419C67.8872 38.1231 67.964 38.9443 68.3485 39.5596C72.3597 45.9181 77.3734 51.3882 83.4961 55.7577C84.9179 56.7641 86.5333 57.5322 88.1217 58.2421C88.7745 58.5208 89.6422 58.3178 90.6903 58.3358C90.5085 57.1666 90.362 56.2714 90.2302 55.3623C90.3729 55.3954 90.6459 55.3895 90.7287 55.507C91.2518 56.2989 91.8191 57.049 92.2109 57.9087C92.9953 59.5993 92.3192 61.1299 90.5893 61.8379C89.2811 62.3721 87.8878 62.3722 86.6249 61.8304C84.6528 60.9794 82.6379 60.1127 80.8922 58.8808C74.0496 54.0725 68.5809 47.9419 64.2919 40.7559C63.9403 39.9981 63.514 39.3384 62.9787 38.4743ZM65.3059 32.9867C70.0571 32.1135 73.0791 29.4342 74.4884 24.8951C74.9948 23.2731 74.8533 21.7029 73.9483 20.2097C72.8104 18.3214 70.8545 17.9018 69.1492 19.257C67.2084 20.806 65.8293 22.8033 64.8872 25.0871C63.8064 27.697 63.846 30.3127 65.3059 32.9867ZM39.0904 15.5418C41.6239 14.8586 43.5589 13.5106 45.0782 11.6325C45.8978 10.6091 46.5788 9.40908 47.0876 8.20372C47.6718 6.8714 47.1423 5.80635 45.836 5.27757C44.0615 4.54759 42.1842 4.38908 40.3192 4.80554C38.3237 5.26108 37.327 6.45136 37.3396 8.50603C37.3709 10.906 37.8788 13.2202 39.0904 15.5418Z" fill="black"/>
</svg>
