<svg width="56" height="49" viewBox="0 0 56 49" fill="none" xmlns="http://www.w3.org/2000/svg">
<path d="M17.3154 38.2753C19.1808 39.418 21.0861 40.5282 22.9242 41.7599C23.7679 42.3039 24.6006 42.9567 25.237 43.7366C26.1019 44.7963 25.9054 46.5558 24.9799 47.5444C24.3216 48.2481 22.6887 48.6147 22.1901 47.9222C20.2087 45.2085 17.015 44.6834 14.3091 43.3272C12.0043 42.1766 9.51379 41.4109 7.20896 40.2604C5.53205 39.4302 3.82984 38.4874 2.45126 37.2472C-0.8265 34.2922 -0.446848 29.8182 3.342 27.7255C8.6064 24.8283 14.0103 22.1837 19.8181 20.4422C20.9516 20.1167 22.1668 19.8912 23.3362 19.9362C25.1267 20.0075 26.1949 22.5002 24.9784 23.8262C23.9492 24.9326 22.6316 25.8082 21.3666 26.7073C19.4291 28.0886 17.4099 29.37 15.2635 30.8219C15.7894 31.4255 16.0448 31.9833 16.4042 32.0564C22.5699 33.1209 28.7421 33.2139 34.8257 31.647C39.9283 30.3477 44.3913 27.938 47.5566 23.4892C52.0062 17.2261 52.1173 9.60643 47.6542 3.32134C47.1557 2.62884 46.5935 2.02164 46.2018 1.54174C46.4289 0.0238898 47.3262 -0.142038 48.1394 0.160418C49.9599 0.840025 51.3184 2.09648 52.3387 3.79566C57.0158 11.7717 55.6995 21.8741 49.1375 28.5286C45.2974 32.3955 40.756 35.0357 35.4319 36.3493C31.0486 37.428 26.6137 37.7493 22.1265 37.6802C20.5866 37.671 19.054 37.5892 17.5178 37.5437C17.4594 37.7579 17.3974 38.0084 17.3154 38.2753Z" fill="black"/>
</svg>
