<svg width="87" height="22" viewBox="0 0 87 22" fill="none" xmlns="http://www.w3.org/2000/svg">
<path d="M58.1307 10.6407C58.8011 9.88381 59.3621 9.23132 59.954 8.59847C62.0567 6.40312 64.5972 5.42325 67.6569 5.83206C70.8472 6.25409 73.7918 7.31105 76.5658 8.91157C76.9232 9.12921 77.3165 9.31749 77.7164 9.44047C77.8601 9.488 78.1558 9.3365 78.254 9.18149C78.3522 9.02648 78.3852 8.69992 78.2988 8.5757C77.8146 7.98233 77.2747 7.44931 76.7708 6.88694C75.525 5.50715 74.2252 4.17138 73.0496 2.74922C72.3159 1.85017 72.4019 1.00113 73.0868 0.427184C73.7178 -0.102743 74.3285 -0.106872 75.1556 0.521225C75.8457 1.03648 76.4933 1.64638 77.1425 2.23996C78.1831 3.20308 79.1681 4.22656 80.243 5.17666C81.3017 6.12511 82.4126 7.04587 83.941 7.10167C84.1549 7.10684 84.3785 7.17897 84.5695 7.24779C85.588 7.61485 86.1 8.26052 86.0923 9.15048C86.0814 10.0731 85.5888 10.8645 84.568 11.0085C80.5895 11.5294 78.3536 14.3875 76.1047 17.2114C75.3671 18.1429 74.8269 19.2429 74.0859 20.207C73.6296 20.8041 73.0492 21.3227 72.4135 21.7366C71.531 22.3071 70.3463 21.6263 70.2561 20.5615C70.1563 19.4297 70.4924 18.3915 71.1141 17.4648C72.2609 15.75 73.4388 14.0548 74.7165 12.1883C73.6434 11.0569 72.0858 10.8002 70.7311 10.3331C69.3126 9.84308 67.7665 9.63703 66.2496 9.46693C64.8618 9.32639 63.7064 9.98467 62.7483 10.9763C62.2136 11.5325 61.7246 12.1263 61.314 12.761C60.1621 14.5248 58.1185 15.1591 56.1521 14.0527C54.5448 13.1477 52.8998 12.2883 51.3138 11.336C50.0067 10.5603 48.7832 9.61164 47.4745 8.8523C44.8881 7.35326 42.3178 7.32391 39.7552 9.01083C37.9346 10.2121 36.1253 11.4639 34.1776 12.4543C29.4634 14.8636 24.4087 14.1208 20.4923 10.6066C19.8415 10.0294 19.2872 9.31345 18.5791 8.81287C17.3489 7.92953 16.1107 6.96287 14.7381 6.34552C10.1798 4.28391 5.61843 5.99936 3.45078 10.4645C3.11679 11.1564 2.90845 11.9106 2.52878 12.5649C2.34876 12.8766 1.86015 13.1405 1.49598 13.1532C0.867264 13.172 0.557666 12.6458 0.499589 12.079C0.355944 10.7284 0.682496 9.45834 1.29633 8.28337C3.32778 4.34881 6.55879 2.25124 10.9941 2.10655C14.5525 1.98853 17.5947 3.38525 20.3075 5.5899C21.1444 6.28496 21.906 7.07137 22.7215 7.81376C25.8011 10.6329 29.4322 11.0995 32.9848 9.084C34.5944 8.17482 36.165 7.16271 37.6915 6.09665C41.5275 3.40051 45.4465 3.46747 49.4152 5.65082C50.8529 6.43972 52.1531 7.44563 53.5302 8.34385C54.8779 9.20612 56.1765 10.2283 58.1307 10.6407Z" fill="black"/>
</svg>
