<svg width="51" height="32" viewBox="0 0 51 32" fill="none" xmlns="http://www.w3.org/2000/svg">
<path d="M26.118 27.1019C20.9614 24.1336 15.4578 21.5064 9.02405 19.3522C9.98325 18.6013 10.9132 17.8872 11.8191 17.1914C13.262 16.0834 14.6439 15.0221 15.9861 13.9337C18.5866 11.7726 21.1305 9.57121 23.6755 7.3689C24.2422 6.87847 24.809 6.388 25.3765 5.89791C25.9664 5.38696 26.474 4.84267 26.9202 4.27671C27.4197 3.63853 27.2871 3.02854 26.5909 2.54884C25.8947 2.06914 25.0102 1.93019 24.0879 2.26748C23.8061 2.37178 23.5173 2.47137 23.2282 2.57108C21.5076 3.16453 19.7765 3.76161 19.4421 5.37573C19.4016 5.5378 19.2 5.6946 19.0007 5.8497C18.9111 5.91933 18.8221 5.98862 18.7482 6.05788C17.936 6.77169 17.13 7.48898 16.3236 8.20652C14.5708 9.76636 12.8167 11.3274 10.9947 12.8562C8.42699 15.0128 5.84081 17.1844 1.80061 18.1454C0.867805 18.3619 0.364847 18.9599 0.347058 19.6641C0.328097 20.3549 0.806664 20.8401 1.68438 21.1283C1.95294 21.2197 2.24214 21.2771 2.52755 21.3336C2.61139 21.3503 2.69489 21.3668 2.77743 21.3841C7.32782 22.4056 11.4308 23.9795 15.299 25.8172C17.1051 26.6685 18.8628 27.572 20.6206 28.4756C21.4993 28.9273 22.378 29.3789 23.2627 29.8241C23.4554 29.9186 23.6455 30.0153 23.8355 30.1118C24.36 30.3785 24.8829 30.6444 25.455 30.8623C26.4185 31.224 27.65 31.0219 28.3371 30.4889C29.0415 29.9274 29.1125 29.151 28.3247 28.5307C27.6643 28.0073 26.8906 27.5479 26.118 27.1019Z" fill="black"/>
<path d="M25.7842 18.2393C25.293 18.0792 24.7589 17.905 24.1487 17.7205C24.3902 17.5654 24.5938 17.4331 24.7713 17.3177C25.2559 17.0027 25.5453 16.8145 25.8782 16.6371C32.7288 13.1201 39.0047 9.15327 45.2157 5.1246C46.1909 4.48542 47.165 3.83283 47.9931 3.09839C48.4731 2.69162 48.7607 2.12601 48.8945 1.61437C49.0444 1.06077 48.678 0.498214 47.8525 0.354111C47.2887 0.254721 46.5583 0.291475 46.019 0.473697C45.3821 0.686272 44.8358 1.0312 44.2976 1.37107C44.2335 1.41157 44.1694 1.452 44.1054 1.49212C42.0196 2.80934 39.9153 4.14169 37.8515 5.48401C32.9176 8.69849 27.8319 11.7641 22.4045 14.5487C22.3137 14.595 22.2234 14.6416 22.1332 14.6881C20.8267 15.3615 19.5534 16.0177 17.7219 15.6468C16.813 15.4559 15.965 15.9624 15.5258 16.6088C15.0866 17.2553 15.2597 17.8752 15.9153 18.345C16.3393 18.6593 16.8606 18.9515 17.4291 19.1046C18.5123 19.3974 19.5938 19.693 20.6753 19.9887C24.4597 21.0232 28.2442 22.0577 32.1021 22.9714C35.9558 23.882 39.8529 24.6974 43.7494 25.5127C45.2569 25.8282 46.7643 26.1436 48.2691 26.4645C48.3406 26.4821 48.4126 26.5055 48.4846 26.5289C48.6575 26.5851 48.8303 26.6412 48.9962 26.6172C49.0801 26.6052 49.1706 26.5939 49.2636 26.5822C49.7135 26.5258 50.2261 26.4616 50.3746 26.2806C50.6613 25.9313 50.8841 25.3038 50.6257 25.0696C50.0441 24.5394 49.246 24.028 48.3509 23.7684C45.7675 23.0211 43.1321 22.3594 40.4598 21.728C38.3953 21.2462 36.3224 20.782 34.2496 20.3178C32.1768 19.8536 30.1039 19.3894 28.0394 18.9076C27.305 18.7351 26.6045 18.5067 25.7842 18.2393Z" fill="black"/>
</svg>
