<svg width="103" height="50" viewBox="0 0 103 50" fill="none" xmlns="http://www.w3.org/2000/svg">
<path d="M37.0307 24.5394C44.6385 18.0148 51.9669 15.0495 67.8612 19.329C68.2406 18.9111 68.7245 18.4608 69.1322 17.9434C72.1433 14.1306 75.9854 11.4207 80.5385 9.78395C83.8328 8.59784 87.2467 7.70595 90.5907 6.66617C91.1958 6.48985 91.7838 6.27148 92.3282 6.09038C92.3126 4.99037 91.5859 5.15718 91.1619 5.10355C88.3546 4.7611 85.5902 3.87262 82.7039 4.27684C82.3125 4.32751 81.8917 4.23346 81.5146 4.10212C80.6996 3.83467 80.0861 3.33882 80.0593 2.38037C80.0342 1.4017 80.6882 0.862948 81.4991 0.662083C82.3928 0.447357 83.3782 0.361963 84.3119 0.414912C86.2013 0.502177 88.1062 0.651693 89.9829 0.900744C93.4729 1.37817 96.9378 1.91468 100.42 2.49322C102.412 2.83271 103.254 4.56736 101.999 6.01525C98.323 10.2439 95.8357 15.1764 93.3452 20.1492C92.8137 21.2063 91.9674 22.1166 91.1259 22.9662C90.5716 23.5331 89.2611 23.0843 89.1796 22.3047C89.0579 21.2574 88.9223 20.1276 89.1841 19.1308C89.623 17.4356 90.3206 15.8219 90.959 14.1831C91.3204 13.2144 91.7598 12.2926 92.2305 11.2307C84.2352 11.7833 75.9898 16.0399 72.4059 21.4357C73.3513 22.1203 74.384 22.7305 75.2809 23.513C76.8084 24.8335 78.4421 26.1012 79.6652 27.6622C81.7428 30.2874 81.6171 33.1873 79.85 35.9583C78.2906 38.4201 76.0915 40.2009 73.3773 41.2697C70.0314 42.5942 67.1565 41.5546 65.5318 38.3546C63.8201 34.9646 63.6334 31.3687 64.4929 27.6921C64.7987 26.3935 65.1825 25.1417 65.6087 23.6084C60.7739 21.5604 55.9756 21.3872 51.1415 22.1879C47.7748 22.7376 44.6645 23.9178 42.0835 26.6656C42.8294 27.2939 43.4211 27.8084 43.9942 28.301C48.9038 32.5118 50.0809 38.0371 49.2181 44.0941C48.6828 47.796 45.7597 49.9676 42.0183 49.8367C38.6634 49.7158 36.034 48.1461 34.2997 45.3037C32.0226 41.5844 31.177 37.5503 32.491 33.2786C32.9593 31.7282 33.5866 30.231 34.2345 28.4709C33.6317 28.098 33.0229 27.5415 32.3248 27.3443C25.0813 25.331 17.6925 24.6493 10.2221 25.528C8.49286 25.7382 6.78034 26.2549 5.12703 26.7966C4.45632 27.0288 3.95018 27.7623 3.1619 28.4532C4.08223 29.197 4.79234 29.7614 5.50087 30.3461C5.37293 30.4174 5.17468 30.6053 5.03441 30.574C4.11493 30.339 3.19071 30.1648 2.32286 29.7914C0.605852 29.0666 0.0780013 27.4787 0.883262 25.792C1.49307 24.5172 2.52487 23.5808 3.82415 23.1334C5.85652 22.4383 7.93104 21.7262 10.0517 21.4653C18.3502 20.4279 26.5197 21.293 34.5249 23.7323C35.2946 24.0572 36.0536 24.2592 37.0307 24.5394ZM38.9949 30.1672C36.0633 34.0067 35.6258 38.0216 37.6324 42.33C38.3474 43.8716 39.5073 44.9393 41.181 45.4369C43.2926 46.0707 45.023 45.067 45.3752 42.9174C45.7715 40.4661 45.4506 38.0602 44.6136 35.7359C43.6601 33.0769 41.873 31.1663 38.9949 30.1672ZM70.1318 25.4692C68.7147 27.6776 68.1877 29.9762 68.3246 32.388C68.4054 33.6966 68.7075 35.043 69.1407 36.2775C69.6034 37.6568 70.7112 38.0897 72.0339 37.6034C73.8386 36.9515 75.3353 35.8074 76.4366 34.2457C77.6083 32.5674 77.5465 31.0161 76.1565 29.503C74.5204 27.7467 72.5891 26.3742 70.1318 25.4692Z" fill="black"/>
</svg>
