<svg width="50" height="30" viewBox="0 0 50 30" fill="none" xmlns="http://www.w3.org/2000/svg">
<path d="M25.0656 25.0546C20.1827 21.6548 14.9248 18.5651 8.69953 15.8669C9.71961 15.2011 10.7074 14.5694 11.6697 13.9539C13.2023 12.9737 14.6702 12.0349 16.1008 11.0657C18.8771 9.13562 21.6005 7.16061 24.325 5.18476C24.9317 4.74476 25.5385 4.30472 26.1459 3.86512C26.7775 3.40667 27.3299 2.90793 27.8231 2.38234C28.3754 1.78936 28.2957 1.17024 27.6432 0.632584C26.9907 0.0949237 26.1214 -0.119397 25.1736 0.137526C24.8838 0.217263 24.5876 0.291716 24.291 0.366252C22.5258 0.809901 20.7498 1.25626 20.2783 2.83575C20.224 2.99374 20.0097 3.13268 19.7978 3.27009C19.7026 3.3318 19.6079 3.39319 19.5284 3.45586C18.6579 4.09735 17.7933 4.74284 16.9284 5.38856C15.0482 6.79227 13.1666 8.19702 11.2202 9.56395C8.47696 11.4923 5.714 13.434 1.60626 14.0448C0.65831 14.1806 0.105908 14.7332 0.027769 15.4332C-0.0503867 16.1199 0.384791 16.6443 1.23454 17.0067C1.49427 17.1209 1.77749 17.2028 2.05699 17.2837C2.1391 17.3075 2.22086 17.3311 2.30162 17.3555C6.7476 18.7635 10.7004 20.6836 14.3967 22.8464C16.1231 23.8495 17.7969 24.9005 19.4706 25.9516C20.3073 26.477 21.144 27.0023 21.9872 27.5217C22.1711 27.6324 22.3523 27.7451 22.5332 27.8576C23.0329 28.1683 23.5311 28.478 24.0825 28.7442C25.0114 29.1873 26.2557 29.0915 26.9859 28.6195C27.7359 28.1205 27.8732 27.353 27.1416 26.6674C26.5285 26.0893 25.7971 25.5652 25.0656 25.0546Z" fill="black"/>
<path d="M25.4933 16.196C25.0177 15.9943 24.5005 15.775 23.9084 15.5388C24.1623 15.405 24.3765 15.2906 24.5632 15.1909C25.0731 14.9186 25.3776 14.756 25.7245 14.6078C32.8515 11.6914 39.4446 8.27767 45.9784 4.7967C47.0048 4.24354 48.0313 3.67692 48.9193 3.01623C49.4324 2.65214 49.7676 2.1133 49.9447 1.61502C50.1416 1.07633 49.8248 0.484411 49.0147 0.270018C48.4615 0.12262 47.7306 0.0965772 47.1777 0.231863C46.5249 0.38901 45.9511 0.685802 45.3857 0.978245C45.3183 1.0131 45.251 1.04788 45.1838 1.08236C42.9927 2.21578 40.7818 3.36268 38.6104 4.52299C33.419 7.30234 28.0891 9.9203 22.4427 12.2291C22.3483 12.2674 22.2543 12.3061 22.1605 12.3447C20.801 12.9034 19.4761 13.4481 17.6832 12.9214C16.7941 12.6532 15.9057 13.0851 15.4127 13.6914C14.9196 14.2978 15.0389 14.9303 15.6518 15.4546C16.0473 15.8041 16.5415 16.14 17.0948 16.3413C18.1489 16.7259 19.2011 17.1133 20.2532 17.5006C23.9349 18.856 27.6167 20.2114 31.382 21.4527C35.1434 22.6905 38.9561 23.8373 42.7683 24.9839C44.2432 25.4275 45.718 25.8711 47.1897 26.3199C47.2594 26.3436 47.3292 26.3731 47.3989 26.4025C47.5663 26.4733 47.7337 26.5441 47.901 26.5344C47.9857 26.5297 48.0767 26.5261 48.1705 26.5225C48.6235 26.5049 49.1397 26.4848 49.3032 26.3173C49.6188 25.9939 49.8946 25.3878 49.6573 25.1323C49.1233 24.5541 48.372 23.9762 47.5025 23.6407C44.9928 22.6745 42.4239 21.7892 39.8155 20.9309C37.8 20.2737 35.7746 19.6334 33.7492 18.9931C31.7239 18.3528 29.6985 17.7125 27.6829 17.0553C26.9661 16.8204 26.2877 16.5328 25.4933 16.196Z" fill="black"/>
</svg>
