<svg width="122" height="173" viewBox="0 0 122 173" fill="none" xmlns="http://www.w3.org/2000/svg">
<path d="M11.22 31L16.66 16.1H18.38L23.82 31H22.14L20.86 27.36H14.2L12.9 31H11.22ZM14.72 25.86H20.3L17.28 17.3H17.76L14.72 25.86ZM30.0963 31.24C29.0429 31.24 28.1163 30.9933 27.3163 30.5C26.5163 30.0067 25.8896 29.34 25.4363 28.5C24.9829 27.6467 24.7563 26.6867 24.7563 25.62C24.7563 24.5533 24.9829 23.6 25.4363 22.76C25.8896 21.92 26.5163 21.26 27.3163 20.78C28.1163 20.2867 29.0429 20.04 30.0963 20.04C30.7629 20.04 31.3896 20.16 31.9763 20.4C32.5629 20.64 33.0829 20.9667 33.5363 21.38C33.9896 21.78 34.3296 22.2467 34.5563 22.78L33.1963 23.48C32.9296 22.9067 32.5229 22.44 31.9763 22.08C31.4296 21.72 30.8029 21.54 30.0963 21.54C29.3896 21.54 28.7496 21.72 28.1763 22.08C27.6163 22.4267 27.1696 22.9133 26.8363 23.54C26.5163 24.1533 26.3563 24.8533 26.3563 25.64C26.3563 26.4133 26.5163 27.1133 26.8363 27.74C27.1696 28.3533 27.6163 28.84 28.1763 29.2C28.7496 29.56 29.3896 29.74 30.0963 29.74C30.8029 29.74 31.4229 29.56 31.9563 29.2C32.5029 28.84 32.9163 28.36 33.1963 27.76L34.5563 28.5C34.3296 29.02 33.9896 29.4867 33.5363 29.9C33.0829 30.3133 32.5629 30.64 31.9763 30.88C31.3896 31.12 30.7629 31.24 30.0963 31.24ZM42.0884 31.24C41.0351 31.24 40.1084 30.9933 39.3084 30.5C38.5084 30.0067 37.8818 29.34 37.4284 28.5C36.9751 27.6467 36.7484 26.6867 36.7484 25.62C36.7484 24.5533 36.9751 23.6 37.4284 22.76C37.8818 21.92 38.5084 21.26 39.3084 20.78C40.1084 20.2867 41.0351 20.04 42.0884 20.04C42.7551 20.04 43.3818 20.16 43.9684 20.4C44.5551 20.64 45.0751 20.9667 45.5284 21.38C45.9818 21.78 46.3218 22.2467 46.5484 22.78L45.1884 23.48C44.9218 22.9067 44.5151 22.44 43.9684 22.08C43.4218 21.72 42.7951 21.54 42.0884 21.54C41.3818 21.54 40.7418 21.72 40.1684 22.08C39.6084 22.4267 39.1618 22.9133 38.8284 23.54C38.5084 24.1533 38.3484 24.8533 38.3484 25.64C38.3484 26.4133 38.5084 27.1133 38.8284 27.74C39.1618 28.3533 39.6084 28.84 40.1684 29.2C40.7418 29.56 41.3818 29.74 42.0884 29.74C42.7951 29.74 43.4151 29.56 43.9484 29.2C44.4951 28.84 44.9084 28.36 45.1884 27.76L46.5484 28.5C46.3218 29.02 45.9818 29.4867 45.5284 29.9C45.0751 30.3133 44.5551 30.64 43.9684 30.88C43.3818 31.12 42.7551 31.24 42.0884 31.24ZM54.2006 31.24C53.1873 31.24 52.2673 31 51.4406 30.52C50.614 30.0267 49.954 29.36 49.4606 28.52C48.9806 27.6667 48.7406 26.7 48.7406 25.62C48.7406 24.5533 48.9806 23.6 49.4606 22.76C49.9406 21.92 50.5873 21.26 51.4006 20.78C52.2273 20.2867 53.1606 20.04 54.2006 20.04C55.2406 20.04 56.1673 20.28 56.9806 20.76C57.8073 21.24 58.454 21.9 58.9206 22.74C59.4006 23.58 59.6406 24.54 59.6406 25.62C59.6406 26.7133 59.394 27.6867 58.9006 28.54C58.4073 29.38 57.7473 30.04 56.9206 30.52C56.1073 31 55.2006 31.24 54.2006 31.24ZM54.2006 29.74C54.9206 29.74 55.5673 29.56 56.1406 29.2C56.7273 28.84 57.1873 28.3467 57.5206 27.72C57.8673 27.0933 58.0406 26.3933 58.0406 25.62C58.0406 24.8467 57.8673 24.1533 57.5206 23.54C57.1873 22.9267 56.7273 22.44 56.1406 22.08C55.5673 21.72 54.9206 21.54 54.2006 21.54C53.4806 21.54 52.8273 21.72 52.2406 22.08C51.6673 22.44 51.2073 22.9267 50.8606 23.54C50.514 24.1533 50.3406 24.8467 50.3406 25.62C50.3406 26.3933 50.514 27.0933 50.8606 27.72C51.2073 28.3467 51.6673 28.84 52.2406 29.2C52.8273 29.56 53.4806 29.74 54.2006 29.74ZM66.0861 31.24C65.3394 31.24 64.6594 31.0667 64.0461 30.72C63.4328 30.36 62.9461 29.8667 62.5861 29.24C62.2394 28.6 62.0661 27.8667 62.0661 27.04V20.28H63.5661V26.86C63.5661 27.4333 63.6794 27.94 63.9061 28.38C64.1461 28.8067 64.4728 29.14 64.8861 29.38C65.3128 29.62 65.7994 29.74 66.3461 29.74C66.8928 29.74 67.3794 29.62 67.8061 29.38C68.2328 29.1267 68.5661 28.7733 68.8061 28.32C69.0461 27.8533 69.1661 27.3 69.1661 26.66V20.28H70.6661V31H69.1661V28.92L69.5061 29C69.2528 29.6933 68.8194 30.24 68.2061 30.64C67.5928 31.04 66.8861 31.24 66.0861 31.24ZM73.7509 31V20.28H75.2509V22.36L74.9109 22.28C75.1776 21.5867 75.6109 21.04 76.2109 20.64C76.8243 20.24 77.5309 20.04 78.3309 20.04C79.0909 20.04 79.7709 20.2133 80.3709 20.56C80.9843 20.9067 81.4643 21.3867 81.8109 22C82.1709 22.6 82.3509 23.28 82.3509 24.04V31H80.8509V24.62C80.8509 23.9667 80.7309 23.4133 80.4909 22.96C80.2643 22.5067 79.9376 22.16 79.5109 21.92C79.0976 21.6667 78.6176 21.54 78.0709 21.54C77.5243 21.54 77.0376 21.6667 76.6109 21.92C76.1843 22.16 75.8509 22.5133 75.6109 22.98C75.3709 23.4333 75.2509 23.98 75.2509 24.62V31H73.7509ZM89.3158 31.12C88.3558 31.12 87.6158 30.84 87.0958 30.28C86.5758 29.72 86.3158 28.92 86.3158 27.88V21.78H84.3358V20.28H84.8358C85.2891 20.28 85.6491 20.1333 85.9158 19.84C86.1824 19.5333 86.3158 19.1533 86.3158 18.7V17.8H87.8158V20.28H90.1758V21.78H87.8158V27.88C87.8158 28.24 87.8691 28.56 87.9758 28.84C88.0824 29.1067 88.2624 29.32 88.5158 29.48C88.7824 29.64 89.1358 29.72 89.5758 29.72C89.6824 29.72 89.8091 29.7133 89.9558 29.7C90.1024 29.6867 90.2291 29.6733 90.3358 29.66V31C90.1758 31.04 89.9958 31.0667 89.7958 31.08C89.5958 31.1067 89.4358 31.12 89.3158 31.12Z" fill="black"/>
<g clip-path="url(#clip0_309_3437)">
<path d="M102 28L95 19H109L102 28Z" fill="black"/>
</g>
<defs>
<clipPath id="clip0_309_3437">
<rect width="14" height="35" fill="white" transform="matrix(-1 0 0 -1 109 41)"/>
</clipPath>
</defs>
</svg>
