<svg width="35" height="35" viewBox="0 0 35 35" fill="none" xmlns="http://www.w3.org/2000/svg">
<path fill-rule="evenodd" clip-rule="evenodd" d="M23.6873 22.1375C24.115 22.5641 24.115 23.2641 23.6873 23.6907C23.2608 24.1172 22.5673 24.1172 22.1397 23.6907L17.5065 19.0532L12.8406 23.7234C12.4097 24.1499 11.7119 24.1499 11.281 23.7234C10.8511 23.2859 10.8511 22.5859 11.281 22.1594L15.9469 17.4891L11.3137 12.8625C10.8861 12.4359 10.8861 11.7359 11.3137 11.3093C11.7392 10.8828 12.4327 10.8828 12.8603 11.3093L17.4935 15.9468L22.1944 11.2438C22.6253 10.8172 23.322 10.8172 23.7529 11.2438C24.1828 11.6813 24.1828 12.3703 23.7529 12.8078L19.0531 17.5109L23.6873 22.1375ZM17.5 0C7.83453 0 0 7.83125 0 17.5C0 27.1688 7.83453 35 17.5 35C27.1655 35 35 27.1688 35 17.5C35 7.83125 27.1655 0 17.5 0Z" fill="black"/>
</svg>
